<mxfile host="app.diagrams.net" agent="Mozilla/5.0 (Windows NT 10.0; Win64; x64) AppleWebKit/537.36 (KHTML, like Gecko) Chrome/132.0.0.0 Safari/537.36" version="26.0.9">
  <diagram id="prtHgNgQTEPvFCAcTncT" name="Page-1">
    <mxGraphModel dx="880" dy="468" grid="0" gridSize="10" guides="1" tooltips="1" connect="1" arrows="1" fold="1" page="0" pageScale="1" pageWidth="827" pageHeight="1169" math="0" shadow="0">
      <root>
        <mxCell id="0" />
        <mxCell id="1" parent="0" />
        <mxCell id="Vy6m9oRwLzUBBY8Qt2V3-2" value="&lt;span style=&quot;color: rgb(50, 50, 50); font-family: &amp;quot;Microsoft YaHei&amp;quot;, 微软雅黑, Arial; font-weight: 700; background-color: rgba(255, 255, 255, 0.01);&quot;&gt;WEB浏览器&lt;/span&gt;&lt;div style=&quot;resize: none; outline: none; color: rgb(50, 50, 50); font-family: &amp;quot;Microsoft YaHei&amp;quot;, 微软雅黑, Arial; font-weight: 700;&quot;&gt;IE、Chrome、FireFox&lt;/div&gt;" style="rounded=0;whiteSpace=wrap;html=1;fontSize=12;spacing=1;" vertex="1" parent="1">
          <mxGeometry x="310" y="10" width="240" height="60" as="geometry" />
        </mxCell>
        <mxCell id="Vy6m9oRwLzUBBY8Qt2V3-3" value="" style="shape=flexArrow;endArrow=classic;startArrow=classic;html=1;rounded=0;fontSize=12;spacing=1;" edge="1" parent="1">
          <mxGeometry width="100" height="100" relative="1" as="geometry">
            <mxPoint x="420" y="130" as="sourcePoint" />
            <mxPoint x="420" y="70" as="targetPoint" />
          </mxGeometry>
        </mxCell>
        <mxCell id="Vy6m9oRwLzUBBY8Qt2V3-5" value="&lt;font&gt;&lt;b&gt;WEB服务器&lt;/b&gt;&lt;/font&gt;&lt;div&gt;&lt;font&gt;&lt;b&gt;Tomcat&lt;/b&gt;&lt;/font&gt;&lt;/div&gt;" style="text;html=1;align=center;verticalAlign=middle;whiteSpace=wrap;rounded=0;fontSize=12;spacing=1;" vertex="1" parent="1">
          <mxGeometry x="380" y="130" width="80" height="30" as="geometry" />
        </mxCell>
        <mxCell id="Vy6m9oRwLzUBBY8Qt2V3-6" value="" style="rounded=0;whiteSpace=wrap;html=1;fontSize=12;spacing=1;" vertex="1" parent="1">
          <mxGeometry x="240" y="170" width="370" height="80" as="geometry" />
        </mxCell>
        <mxCell id="Vy6m9oRwLzUBBY8Qt2V3-7" value="&lt;b&gt;表&lt;/b&gt;&lt;div&gt;&lt;b&gt;示&lt;/b&gt;&lt;/div&gt;&lt;div&gt;&lt;b&gt;层&lt;/b&gt;&lt;/div&gt;" style="text;html=1;align=center;verticalAlign=middle;whiteSpace=wrap;rounded=0;fontSize=12;spacing=1;" vertex="1" parent="1">
          <mxGeometry x="240" y="185" width="40" height="30" as="geometry" />
        </mxCell>
        <mxCell id="Vy6m9oRwLzUBBY8Qt2V3-8" value="&lt;b&gt;VUE&lt;/b&gt;" style="rounded=1;whiteSpace=wrap;html=1;fontSize=12;spacing=1;" vertex="1" parent="1">
          <mxGeometry x="310" y="190" width="90" height="40" as="geometry" />
        </mxCell>
        <mxCell id="Vy6m9oRwLzUBBY8Qt2V3-9" value="&lt;b&gt;template&lt;/b&gt;" style="rounded=1;whiteSpace=wrap;html=1;fontSize=12;spacing=1;" vertex="1" parent="1">
          <mxGeometry x="460" y="190" width="90" height="40" as="geometry" />
        </mxCell>
        <mxCell id="Vy6m9oRwLzUBBY8Qt2V3-10" value="" style="rounded=0;whiteSpace=wrap;html=1;fontSize=12;spacing=1;" vertex="1" parent="1">
          <mxGeometry x="240" y="290" width="370" height="190" as="geometry" />
        </mxCell>
        <mxCell id="Vy6m9oRwLzUBBY8Qt2V3-11" value="&lt;b&gt;图书订单&lt;/b&gt;" style="rounded=1;whiteSpace=wrap;html=1;fontSize=12;spacing=1;" vertex="1" parent="1">
          <mxGeometry x="300" y="315" width="70" height="30" as="geometry" />
        </mxCell>
        <mxCell id="Vy6m9oRwLzUBBY8Qt2V3-12" value="&lt;b&gt;个人中心&lt;/b&gt;" style="rounded=1;whiteSpace=wrap;html=1;fontSize=12;spacing=1;" vertex="1" parent="1">
          <mxGeometry x="410" y="315" width="70" height="30" as="geometry" />
        </mxCell>
        <mxCell id="Vy6m9oRwLzUBBY8Qt2V3-14" value="&lt;b&gt;图书留言&lt;/b&gt;" style="rounded=1;whiteSpace=wrap;html=1;fontSize=12;spacing=1;" vertex="1" parent="1">
          <mxGeometry x="520" y="315" width="70" height="30" as="geometry" />
        </mxCell>
        <mxCell id="Vy6m9oRwLzUBBY8Qt2V3-15" value="&lt;b&gt;业&lt;/b&gt;&lt;div&gt;&lt;b&gt;务&lt;/b&gt;&lt;div&gt;&lt;b&gt;逻&lt;/b&gt;&lt;/div&gt;&lt;div&gt;&lt;b&gt;辑&lt;/b&gt;&lt;/div&gt;&lt;div&gt;&lt;b&gt;层&lt;/b&gt;&lt;/div&gt;&lt;/div&gt;" style="text;html=1;align=center;verticalAlign=middle;whiteSpace=wrap;rounded=0;fontSize=12;spacing=1;" vertex="1" parent="1">
          <mxGeometry x="240" y="370" width="60" height="30" as="geometry" />
        </mxCell>
        <mxCell id="Vy6m9oRwLzUBBY8Qt2V3-20" value="&lt;b&gt;图书求购&lt;/b&gt;" style="rounded=1;whiteSpace=wrap;html=1;fontSize=12;spacing=1;" vertex="1" parent="1">
          <mxGeometry x="300" y="390" width="70" height="30" as="geometry" />
        </mxCell>
        <mxCell id="Vy6m9oRwLzUBBY8Qt2V3-21" value="&lt;b&gt;用户管理&lt;/b&gt;" style="rounded=1;whiteSpace=wrap;html=1;fontSize=12;spacing=1;" vertex="1" parent="1">
          <mxGeometry x="410" y="390" width="70" height="30" as="geometry" />
        </mxCell>
        <mxCell id="Vy6m9oRwLzUBBY8Qt2V3-23" value="&lt;b&gt;用户反馈&lt;/b&gt;" style="rounded=1;whiteSpace=wrap;html=1;fontSize=12;spacing=1;" vertex="1" parent="1">
          <mxGeometry x="520" y="390" width="70" height="30" as="geometry" />
        </mxCell>
        <mxCell id="Vy6m9oRwLzUBBY8Qt2V3-27" value="" style="rounded=0;whiteSpace=wrap;html=1;fontSize=12;spacing=1;" vertex="1" parent="1">
          <mxGeometry x="240" y="530" width="370" height="80" as="geometry" />
        </mxCell>
        <mxCell id="Vy6m9oRwLzUBBY8Qt2V3-28" value="&lt;b&gt;数&lt;/b&gt;&lt;div&gt;&lt;b&gt;据&lt;/b&gt;&lt;/div&gt;&lt;div&gt;&lt;b&gt;访&lt;/b&gt;&lt;/div&gt;&lt;div&gt;&lt;b&gt;问&lt;/b&gt;&lt;/div&gt;&lt;div&gt;&lt;b&gt;层&lt;/b&gt;&lt;/div&gt;" style="text;html=1;align=center;verticalAlign=middle;whiteSpace=wrap;rounded=0;fontSize=12;spacing=1;" vertex="1" parent="1">
          <mxGeometry x="240" y="570" width="60" as="geometry" />
        </mxCell>
        <mxCell id="Vy6m9oRwLzUBBY8Qt2V3-30" style="edgeStyle=orthogonalEdgeStyle;rounded=0;orthogonalLoop=1;jettySize=auto;html=1;exitX=0.5;exitY=1;exitDx=0;exitDy=0;fontSize=12;spacing=1;" edge="1" parent="1" source="Vy6m9oRwLzUBBY8Qt2V3-28" target="Vy6m9oRwLzUBBY8Qt2V3-28">
          <mxGeometry relative="1" as="geometry" />
        </mxCell>
        <mxCell id="Vy6m9oRwLzUBBY8Qt2V3-31" value="&lt;b&gt;Mybatis&lt;/b&gt;" style="rounded=1;whiteSpace=wrap;html=1;fontSize=12;spacing=1;" vertex="1" parent="1">
          <mxGeometry x="369" y="550" width="90" height="40" as="geometry" />
        </mxCell>
        <mxCell id="Vy6m9oRwLzUBBY8Qt2V3-32" value="" style="shape=flexArrow;endArrow=classic;startArrow=classic;html=1;rounded=0;fontSize=12;spacing=1;" edge="1" parent="1">
          <mxGeometry width="100" height="100" relative="1" as="geometry">
            <mxPoint x="419.5" y="688" as="sourcePoint" />
            <mxPoint x="419.5" y="628" as="targetPoint" />
          </mxGeometry>
        </mxCell>
        <mxCell id="Vy6m9oRwLzUBBY8Qt2V3-33" value="" style="rounded=0;whiteSpace=wrap;html=1;fontSize=12;spacing=1;" vertex="1" parent="1">
          <mxGeometry x="237" y="687" width="370" height="50" as="geometry" />
        </mxCell>
        <mxCell id="Vy6m9oRwLzUBBY8Qt2V3-34" value="&lt;b&gt;数据库服务器&lt;br&gt;MYSQL&lt;/b&gt;" style="text;html=1;align=center;verticalAlign=middle;whiteSpace=wrap;rounded=0;fontSize=12;spacing=1;" vertex="1" parent="1">
          <mxGeometry x="370" y="693" width="100" height="30" as="geometry" />
        </mxCell>
        <mxCell id="Vy6m9oRwLzUBBY8Qt2V3-39" value="" style="rounded=0;whiteSpace=wrap;html=1;strokeColor=default;align=center;verticalAlign=middle;fontFamily=Helvetica;fontSize=12;fontColor=default;fillColor=default;fillStyle=hatch;spacing=1;" vertex="1" parent="1">
          <mxGeometry x="210" y="130" width="428" height="501" as="geometry" />
        </mxCell>
      </root>
    </mxGraphModel>
  </diagram>
</mxfile>
